<?xml version='1.0' encoding='utf-8'?>
<svg xmlns="http://www.w3.org/2000/svg" version="1.1" width="1000" height="400"><polyline points="57.36,33.57 110.42,34.82 115.51,47.33 242.17,54.23 316.76,59.57 325.18,62.53 333.01,60.67 342.01,36.72 495.89,34.93 507.44,39.10 576.16,36.72 586.34,30.00 603.95,34.73 614.53,36.69 621.18,32.47 642.72,35.99 657.99,42.94 717.50,43.86 729.84,42.78 759.40,44.27 766.25,44.29 773.10,42.83 781.52,44.52 800.90,38.43 812.26,37.47 827.53,37.31 842.60,30.92 882.93,34.32 941.46,37.57 1000.00,32.18 1000.00,400 0,400" stroke="blue" stroke-width="2" fill="lightblue" /><text x="10" y="20" fill="black" font-size="16">Altimetría del circuito</text><text x="10" y="395" fill="black" font-size="12">Distancia (m)</text><text x="900" y="30" fill="black" font-size="12">Altitud (m)</text></svg>