<?xml version="1.0" encoding="utf-8"?><svg width="auto" height="5820" style="overflow:visible " version="1.1" xmlns="http://www.w3.org/2000/svg"><rect x="20" y="20" width="200" height="40" style="fill:white;stroke:black;stroke-width:1" /><text x="30" y="30" font-size="10" style="fill:blue">circuito</text><rect x="240" y="20" width="200" height="40" style="fill:white;stroke:black;stroke-width:1" /><text x="250" y="30" font-size="10" style="fill:blue">nombreCircuito</text><path d="M220 40 C240 40 220 40 240 40" style="fill:transparent;stroke:black" /><rect x="306" y="20" width="137" height="40" style="fill:green;stroke:black;stroke-width:1" /><text x="316" y="30" font-size="8" style="fill:white">Chang International Circuit</text><rect x="240" y="70" width="200" height="40" style="fill:white;stroke:black;stroke-width:1" /><text x="250" y="80" font-size="10" style="fill:blue">longitudCircuito</text><path d="M220 40 C240 40 220 90 240 90" style="fill:transparent;stroke:black" /><text x="250" y="90" font-size="8" style="fill:black">unidad: m</text><rect x="306" y="70" width="137" height="40" style="fill:green;stroke:black;stroke-width:1" /><text x="316" y="80" font-size="8" style="fill:white">4554</text><rect x="240" y="120" width="200" height="40" style="fill:white;stroke:black;stroke-width:1" /><text x="250" y="130" font-size="10" style="fill:blue">anchuraMedia</text><path d="M220 40 C240 40 220 140 240 140" style="fill:transparent;stroke:black" /><text x="250" y="140" font-size="8" style="fill:black">unidad: m</text><rect x="306" y="120" width="137" height="40" style="fill:green;stroke:black;stroke-width:1" /><text x="316" y="130" font-size="8" style="fill:white">12</text><rect x="240" y="170" width="200" height="40" style="fill:white;stroke:black;stroke-width:1" /><text x="250" y="180" font-size="10" style="fill:blue">fechaCarrera</text><path d="M220 40 C240 40 220 190 240 190" style="fill:transparent;stroke:black" /><rect x="306" y="170" width="137" height="40" style="fill:green;stroke:black;stroke-width:1" /><text x="316" y="180" font-size="8" style="fill:white">2025-03-02</text><rect x="240" y="220" width="200" height="40" style="fill:white;stroke:black;stroke-width:1" /><text x="250" y="230" font-size="10" style="fill:blue">horaEsp</text><path d="M220 40 C240 40 220 240 240 240" style="fill:transparent;stroke:black" /><rect x="306" y="220" width="137" height="40" style="fill:green;stroke:black;stroke-width:1" /><text x="316" y="230" font-size="8" style="fill:white">09:00</text><rect x="240" y="270" width="200" height="40" style="fill:white;stroke:black;stroke-width:1" /><text x="250" y="280" font-size="10" style="fill:blue">numeroVueltas</text><path d="M220 40 C240 40 220 290 240 290" style="fill:transparent;stroke:black" /><rect x="306" y="270" width="137" height="40" style="fill:green;stroke:black;stroke-width:1" /><text x="316" y="280" font-size="8" style="fill:white">26</text><rect x="240" y="320" width="200" height="40" style="fill:white;stroke:black;stroke-width:1" /><text x="250" y="330" font-size="10" style="fill:blue">localidadProxima</text><path d="M220 40 C240 40 220 340 240 340" style="fill:transparent;stroke:black" /><rect x="306" y="320" width="137" height="40" style="fill:green;stroke:black;stroke-width:1" /><text x="316" y="330" font-size="8" style="fill:white">Buriram</text><rect x="240" y="370" width="200" height="40" style="fill:white;stroke:black;stroke-width:1" /><text x="250" y="380" font-size="10" style="fill:blue">paisDelCircuito</text><path d="M220 40 C240 40 220 390 240 390" style="fill:transparent;stroke:black" /><rect x="306" y="370" width="137" height="40" style="fill:green;stroke:black;stroke-width:1" /><text x="316" y="380" font-size="8" style="fill:white">Tailandia</text><rect x="240" y="420" width="200" height="40" style="fill:white;stroke:black;stroke-width:1" /><text x="250" y="430" font-size="10" style="fill:blue">nombrePatrocinadorP</text><path d="M220 40 C240 40 220 440 240 440" style="fill:transparent;stroke:black" /><rect x="306" y="420" width="137" height="40" style="fill:green;stroke:black;stroke-width:1" /><text x="316" y="430" font-size="8" style="fill:white">Chang</text><rect x="240" y="470" width="200" height="40" style="fill:white;stroke:black;stroke-width:1" /><text x="250" y="480" font-size="10" style="fill:blue">referencias</text><path d="M220 40 C240 40 220 490 240 490" style="fill:transparent;stroke:black" /><rect x="460" y="470" width="200" height="40" style="fill:white;stroke:black;stroke-width:1" /><text x="470" y="480" font-size="10" style="fill:blue">referencia</text><path d="M440 490 C460 490 440 490 460 490" style="fill:transparent;stroke:black" /><text x="470" y="490" font-size="8" style="fill:black">url: https://en.wikipedia.org/wiki/Chang_International_Circuit</text><rect x="526" y="470" width="137" height="40" style="fill:green;stroke:black;stroke-width:1" /><text x="536" y="480" font-size="8" style="fill:white"> Wikipedia —
            Chang International Circuit </text><rect x="460" y="520" width="200" height="40" style="fill:white;stroke:black;stroke-width:1" /><text x="470" y="530" font-size="10" style="fill:blue">referencia</text><path d="M440 490 C460 490 440 540 460 540" style="fill:transparent;stroke:black" /><text x="470" y="540" font-size="8" style="fill:black">url: https://www.motogp.com/en/calendar</text><rect x="526" y="520" width="137" height="40" style="fill:green;stroke:black;stroke-width:1" /><text x="536" y="530" font-size="8" style="fill:white"> MotoGP — 2025 Calendar </text><rect x="460" y="570" width="200" height="40" style="fill:white;stroke:black;stroke-width:1" /><text x="470" y="580" font-size="10" style="fill:blue">referencia</text><path d="M440 490 C460 490 440 590 460 590" style="fill:transparent;stroke:black" /><text x="470" y="590" font-size="8" style="fill:black">url: https://www.buriramunited.com/</text><rect x="526" y="570" width="137" height="40" style="fill:green;stroke:black;stroke-width:1" /><text x="536" y="580" font-size="8" style="fill:white"> Buriram United — Circuit information </text><rect x="240" y="670" width="200" height="40" style="fill:white;stroke:black;stroke-width:1" /><text x="250" y="680" font-size="10" style="fill:blue">galeriaFotos</text><path d="M220 40 C240 40 220 690 240 690" style="fill:transparent;stroke:black" /><rect x="460" y="670" width="200" height="40" style="fill:white;stroke:black;stroke-width:1" /><text x="470" y="680" font-size="10" style="fill:blue">fotos</text><path d="M440 690 C460 690 440 690 460 690" style="fill:transparent;stroke:black" /><text x="470" y="690" font-size="8" style="fill:black">nombre: multimedia/Chang_International_Circuit.jpg</text><rect x="526" y="670" width="137" height="40" style="fill:green;stroke:black;stroke-width:1" /><text x="536" y="680" font-size="8" style="fill:white"> Foto 1 del circuito </text><rect x="460" y="720" width="200" height="40" style="fill:white;stroke:black;stroke-width:1" /><text x="470" y="730" font-size="10" style="fill:blue">fotos</text><path d="M440 690 C460 690 440 740 460 740" style="fill:transparent;stroke:black" /><text x="470" y="740" font-size="8" style="fill:black">nombre: multimedia/changMeta.jpg</text><rect x="526" y="720" width="137" height="40" style="fill:green;stroke:black;stroke-width:1" /><text x="536" y="730" font-size="8" style="fill:white"> Foto 2 del circuito </text><rect x="460" y="770" width="200" height="40" style="fill:white;stroke:black;stroke-width:1" /><text x="470" y="780" font-size="10" style="fill:blue">fotos</text><path d="M440 690 C460 690 440 790 460 790" style="fill:transparent;stroke:black" /><text x="470" y="790" font-size="8" style="fill:black">nombre: multimedia/Img.jpg</text><rect x="526" y="770" width="137" height="40" style="fill:green;stroke:black;stroke-width:1" /><text x="536" y="780" font-size="8" style="fill:white"> Foto 3 del circuito</text><rect x="240" y="870" width="200" height="40" style="fill:white;stroke:black;stroke-width:1" /><text x="250" y="880" font-size="10" style="fill:blue">galeriaVideos</text><path d="M220 40 C240 40 220 890 240 890" style="fill:transparent;stroke:black" /><rect x="460" y="870" width="200" height="40" style="fill:white;stroke:black;stroke-width:1" /><text x="470" y="880" font-size="10" style="fill:blue">videos</text><path d="M440 890 C460 890 440 890 460 890" style="fill:transparent;stroke:black" /><text x="470" y="890" font-size="8" style="fill:black">nombre: multimedia/Behind the Apex - Chang International Circuit.mp4</text><rect x="526" y="870" width="137" height="40" style="fill:green;stroke:black;stroke-width:1" /><text x="536" y="880" font-size="8" style="fill:white"> Video 1 del
            circuito </text><rect x="240" y="970" width="200" height="40" style="fill:white;stroke:black;stroke-width:1" /><text x="250" y="980" font-size="10" style="fill:blue">puntoOrigen</text><path d="M220 40 C240 40 220 990 240 990" style="fill:transparent;stroke:black" /><rect x="460" y="970" width="200" height="40" style="fill:white;stroke:black;stroke-width:1" /><text x="470" y="980" font-size="10" style="fill:blue">latitud</text><path d="M440 990 C460 990 440 990 460 990" style="fill:transparent;stroke:black" /><rect x="526" y="970" width="137" height="40" style="fill:green;stroke:black;stroke-width:1" /><text x="536" y="980" font-size="8" style="fill:white"> 14.962844 </text><rect x="460" y="1020" width="200" height="40" style="fill:white;stroke:black;stroke-width:1" /><text x="470" y="1030" font-size="10" style="fill:blue">longitud</text><path d="M440 990 C460 990 440 1040 460 1040" style="fill:transparent;stroke:black" /><rect x="526" y="1020" width="137" height="40" style="fill:green;stroke:black;stroke-width:1" /><text x="536" y="1030" font-size="8" style="fill:white"> 103.084998 </text><rect x="460" y="1070" width="200" height="40" style="fill:white;stroke:black;stroke-width:1" /><text x="470" y="1080" font-size="10" style="fill:blue">altitud</text><path d="M440 990 C460 990 440 1090 460 1090" style="fill:transparent;stroke:black" /><rect x="526" y="1070" width="137" height="40" style="fill:green;stroke:black;stroke-width:1" /><text x="536" y="1080" font-size="8" style="fill:white"> 163 </text><rect x="240" y="1170" width="200" height="40" style="fill:white;stroke:black;stroke-width:1" /><text x="250" y="1180" font-size="10" style="fill:blue">tramos</text><path d="M220 40 C240 40 220 1190 240 1190" style="fill:transparent;stroke:black" /><rect x="460" y="1170" width="200" height="40" style="fill:white;stroke:black;stroke-width:1" /><text x="470" y="1180" font-size="10" style="fill:blue">tramo</text><path d="M440 1190 C460 1190 440 1190 460 1190" style="fill:transparent;stroke:black" /><rect x="680" y="1170" width="200" height="40" style="fill:white;stroke:black;stroke-width:1" /><text x="690" y="1180" font-size="10" style="fill:blue">distanciaTramoEnMetros</text><path d="M660 1190 C680 1190 660 1190 680 1190" style="fill:transparent;stroke:black" /><text x="690" y="1190" font-size="8" style="fill:black">unidad: m</text><rect x="746" y="1170" width="137" height="40" style="fill:green;stroke:black;stroke-width:1" /><text x="756" y="1180" font-size="8" style="fill:white">380</text><rect x="680" y="1220" width="200" height="40" style="fill:white;stroke:black;stroke-width:1" /><text x="690" y="1230" font-size="10" style="fill:blue">coordenadaFinalTramo</text><path d="M660 1190 C680 1190 660 1240 680 1240" style="fill:transparent;stroke:black" /><rect x="900" y="1220" width="200" height="40" style="fill:white;stroke:black;stroke-width:1" /><text x="910" y="1230" font-size="10" style="fill:blue">latitudTramo</text><path d="M880 1240 C900 1240 880 1240 900 1240" style="fill:transparent;stroke:black" /><rect x="966" y="1220" width="137" height="40" style="fill:green;stroke:black;stroke-width:1" /><text x="976" y="1230" font-size="8" style="fill:white">14.962900</text><rect x="900" y="1270" width="200" height="40" style="fill:white;stroke:black;stroke-width:1" /><text x="910" y="1280" font-size="10" style="fill:blue">longitudTramo</text><path d="M880 1240 C900 1240 880 1290 900 1290" style="fill:transparent;stroke:black" /><rect x="966" y="1270" width="137" height="40" style="fill:green;stroke:black;stroke-width:1" /><text x="976" y="1280" font-size="8" style="fill:white">103.085150</text><rect x="900" y="1320" width="200" height="40" style="fill:white;stroke:black;stroke-width:1" /><text x="910" y="1330" font-size="10" style="fill:blue">altitudTramo</text><path d="M880 1240 C900 1240 880 1340 900 1340" style="fill:transparent;stroke:black" /><rect x="966" y="1320" width="137" height="40" style="fill:green;stroke:black;stroke-width:1" /><text x="976" y="1330" font-size="8" style="fill:white">163</text><rect x="680" y="1420" width="200" height="40" style="fill:white;stroke:black;stroke-width:1" /><text x="690" y="1430" font-size="10" style="fill:blue">numeroSectorCircuito</text><path d="M660 1190 C680 1190 660 1440 680 1440" style="fill:transparent;stroke:black" /><rect x="746" y="1420" width="137" height="40" style="fill:green;stroke:black;stroke-width:1" /><text x="756" y="1430" font-size="8" style="fill:white">1</text><rect x="460" y="1520" width="200" height="40" style="fill:white;stroke:black;stroke-width:1" /><text x="470" y="1530" font-size="10" style="fill:blue">tramo</text><path d="M440 1190 C460 1190 440 1540 460 1540" style="fill:transparent;stroke:black" /><rect x="680" y="1520" width="200" height="40" style="fill:white;stroke:black;stroke-width:1" /><text x="690" y="1530" font-size="10" style="fill:blue">distanciaTramoEnMetros</text><path d="M660 1540 C680 1540 660 1540 680 1540" style="fill:transparent;stroke:black" /><text x="690" y="1540" font-size="8" style="fill:black">unidad: m</text><rect x="746" y="1520" width="137" height="40" style="fill:green;stroke:black;stroke-width:1" /><text x="756" y="1530" font-size="8" style="fill:white">860</text><rect x="680" y="1570" width="200" height="40" style="fill:white;stroke:black;stroke-width:1" /><text x="690" y="1580" font-size="10" style="fill:blue">coordenadaFinalTramo</text><path d="M660 1540 C680 1540 660 1590 680 1590" style="fill:transparent;stroke:black" /><rect x="900" y="1570" width="200" height="40" style="fill:white;stroke:black;stroke-width:1" /><text x="910" y="1580" font-size="10" style="fill:blue">latitudTramo</text><path d="M880 1590 C900 1590 880 1590 900 1590" style="fill:transparent;stroke:black" /><rect x="966" y="1570" width="137" height="40" style="fill:green;stroke:black;stroke-width:1" /><text x="976" y="1580" font-size="8" style="fill:white">14.963400</text><rect x="900" y="1620" width="200" height="40" style="fill:white;stroke:black;stroke-width:1" /><text x="910" y="1630" font-size="10" style="fill:blue">longitudTramo</text><path d="M880 1590 C900 1590 880 1640 900 1640" style="fill:transparent;stroke:black" /><rect x="966" y="1620" width="137" height="40" style="fill:green;stroke:black;stroke-width:1" /><text x="976" y="1630" font-size="8" style="fill:white">103.085800</text><rect x="900" y="1670" width="200" height="40" style="fill:white;stroke:black;stroke-width:1" /><text x="910" y="1680" font-size="10" style="fill:blue">altitudTramo</text><path d="M880 1590 C900 1590 880 1690 900 1690" style="fill:transparent;stroke:black" /><rect x="966" y="1670" width="137" height="40" style="fill:green;stroke:black;stroke-width:1" /><text x="976" y="1680" font-size="8" style="fill:white">163</text><rect x="680" y="1770" width="200" height="40" style="fill:white;stroke:black;stroke-width:1" /><text x="690" y="1780" font-size="10" style="fill:blue">numeroSectorCircuito</text><path d="M660 1540 C680 1540 660 1790 680 1790" style="fill:transparent;stroke:black" /><rect x="746" y="1770" width="137" height="40" style="fill:green;stroke:black;stroke-width:1" /><text x="756" y="1780" font-size="8" style="fill:white">1</text><rect x="460" y="1870" width="200" height="40" style="fill:white;stroke:black;stroke-width:1" /><text x="470" y="1880" font-size="10" style="fill:blue">tramo</text><path d="M440 1190 C460 1190 440 1890 460 1890" style="fill:transparent;stroke:black" /><rect x="680" y="1870" width="200" height="40" style="fill:white;stroke:black;stroke-width:1" /><text x="690" y="1880" font-size="10" style="fill:blue">distanciaTramoEnMetros</text><path d="M660 1890 C680 1890 660 1890 680 1890" style="fill:transparent;stroke:black" /><text x="690" y="1890" font-size="8" style="fill:black">unidad: m</text><rect x="746" y="1870" width="137" height="40" style="fill:green;stroke:black;stroke-width:1" /><text x="756" y="1880" font-size="8" style="fill:white">300</text><rect x="680" y="1920" width="200" height="40" style="fill:white;stroke:black;stroke-width:1" /><text x="690" y="1930" font-size="10" style="fill:blue">coordenadaFinalTramo</text><path d="M660 1890 C680 1890 660 1940 680 1940" style="fill:transparent;stroke:black" /><rect x="900" y="1920" width="200" height="40" style="fill:white;stroke:black;stroke-width:1" /><text x="910" y="1930" font-size="10" style="fill:blue">latitudTramo</text><path d="M880 1940 C900 1940 880 1940 900 1940" style="fill:transparent;stroke:black" /><rect x="966" y="1920" width="137" height="40" style="fill:green;stroke:black;stroke-width:1" /><text x="976" y="1930" font-size="8" style="fill:white">14.963950</text><rect x="900" y="1970" width="200" height="40" style="fill:white;stroke:black;stroke-width:1" /><text x="910" y="1980" font-size="10" style="fill:blue">longitudTramo</text><path d="M880 1940 C900 1940 880 1990 900 1990" style="fill:transparent;stroke:black" /><rect x="966" y="1970" width="137" height="40" style="fill:green;stroke:black;stroke-width:1" /><text x="976" y="1980" font-size="8" style="fill:white">103.086250</text><rect x="900" y="2020" width="200" height="40" style="fill:white;stroke:black;stroke-width:1" /><text x="910" y="2030" font-size="10" style="fill:blue">altitudTramo</text><path d="M880 1940 C900 1940 880 2040 900 2040" style="fill:transparent;stroke:black" /><rect x="966" y="2020" width="137" height="40" style="fill:green;stroke:black;stroke-width:1" /><text x="976" y="2030" font-size="8" style="fill:white">164</text><rect x="680" y="2120" width="200" height="40" style="fill:white;stroke:black;stroke-width:1" /><text x="690" y="2130" font-size="10" style="fill:blue">numeroSectorCircuito</text><path d="M660 1890 C680 1890 660 2140 680 2140" style="fill:transparent;stroke:black" /><rect x="746" y="2120" width="137" height="40" style="fill:green;stroke:black;stroke-width:1" /><text x="756" y="2130" font-size="8" style="fill:white">2</text><rect x="460" y="2220" width="200" height="40" style="fill:white;stroke:black;stroke-width:1" /><text x="470" y="2230" font-size="10" style="fill:blue">tramo</text><path d="M440 1190 C460 1190 440 2240 460 2240" style="fill:transparent;stroke:black" /><rect x="680" y="2220" width="200" height="40" style="fill:white;stroke:black;stroke-width:1" /><text x="690" y="2230" font-size="10" style="fill:blue">distanciaTramoEnMetros</text><path d="M660 2240 C680 2240 660 2240 680 2240" style="fill:transparent;stroke:black" /><text x="690" y="2240" font-size="8" style="fill:black">unidad: m</text><rect x="746" y="2220" width="137" height="40" style="fill:green;stroke:black;stroke-width:1" /><text x="756" y="2230" font-size="8" style="fill:white">270</text><rect x="680" y="2270" width="200" height="40" style="fill:white;stroke:black;stroke-width:1" /><text x="690" y="2280" font-size="10" style="fill:blue">coordenadaFinalTramo</text><path d="M660 2240 C680 2240 660 2290 680 2290" style="fill:transparent;stroke:black" /><rect x="900" y="2270" width="200" height="40" style="fill:white;stroke:black;stroke-width:1" /><text x="910" y="2280" font-size="10" style="fill:blue">latitudTramo</text><path d="M880 2290 C900 2290 880 2290 900 2290" style="fill:transparent;stroke:black" /><rect x="966" y="2270" width="137" height="40" style="fill:green;stroke:black;stroke-width:1" /><text x="976" y="2280" font-size="8" style="fill:white">14.964300</text><rect x="900" y="2320" width="200" height="40" style="fill:white;stroke:black;stroke-width:1" /><text x="910" y="2330" font-size="10" style="fill:blue">longitudTramo</text><path d="M880 2290 C900 2290 880 2340 900 2340" style="fill:transparent;stroke:black" /><rect x="966" y="2320" width="137" height="40" style="fill:green;stroke:black;stroke-width:1" /><text x="976" y="2330" font-size="8" style="fill:white">103.086700</text><rect x="900" y="2370" width="200" height="40" style="fill:white;stroke:black;stroke-width:1" /><text x="910" y="2380" font-size="10" style="fill:blue">altitudTramo</text><path d="M880 2290 C900 2290 880 2390 900 2390" style="fill:transparent;stroke:black" /><rect x="966" y="2370" width="137" height="40" style="fill:green;stroke:black;stroke-width:1" /><text x="976" y="2380" font-size="8" style="fill:white">164</text><rect x="680" y="2470" width="200" height="40" style="fill:white;stroke:black;stroke-width:1" /><text x="690" y="2480" font-size="10" style="fill:blue">numeroSectorCircuito</text><path d="M660 2240 C680 2240 660 2490 680 2490" style="fill:transparent;stroke:black" /><rect x="746" y="2470" width="137" height="40" style="fill:green;stroke:black;stroke-width:1" /><text x="756" y="2480" font-size="8" style="fill:white">2</text><rect x="460" y="2570" width="200" height="40" style="fill:white;stroke:black;stroke-width:1" /><text x="470" y="2580" font-size="10" style="fill:blue">tramo</text><path d="M440 1190 C460 1190 440 2590 460 2590" style="fill:transparent;stroke:black" /><rect x="680" y="2570" width="200" height="40" style="fill:white;stroke:black;stroke-width:1" /><text x="690" y="2580" font-size="10" style="fill:blue">distanciaTramoEnMetros</text><path d="M660 2590 C680 2590 660 2590 680 2590" style="fill:transparent;stroke:black" /><text x="690" y="2590" font-size="8" style="fill:black">unidad: m</text><rect x="746" y="2570" width="137" height="40" style="fill:green;stroke:black;stroke-width:1" /><text x="756" y="2580" font-size="8" style="fill:white">280</text><rect x="680" y="2620" width="200" height="40" style="fill:white;stroke:black;stroke-width:1" /><text x="690" y="2630" font-size="10" style="fill:blue">coordenadaFinalTramo</text><path d="M660 2590 C680 2590 660 2640 680 2640" style="fill:transparent;stroke:black" /><rect x="900" y="2620" width="200" height="40" style="fill:white;stroke:black;stroke-width:1" /><text x="910" y="2630" font-size="10" style="fill:blue">latitudTramo</text><path d="M880 2640 C900 2640 880 2640 900 2640" style="fill:transparent;stroke:black" /><rect x="966" y="2620" width="137" height="40" style="fill:green;stroke:black;stroke-width:1" /><text x="976" y="2630" font-size="8" style="fill:white">14.964650</text><rect x="900" y="2670" width="200" height="40" style="fill:white;stroke:black;stroke-width:1" /><text x="910" y="2680" font-size="10" style="fill:blue">longitudTramo</text><path d="M880 2640 C900 2640 880 2690 900 2690" style="fill:transparent;stroke:black" /><rect x="966" y="2670" width="137" height="40" style="fill:green;stroke:black;stroke-width:1" /><text x="976" y="2680" font-size="8" style="fill:white">103.087050</text><rect x="900" y="2720" width="200" height="40" style="fill:white;stroke:black;stroke-width:1" /><text x="910" y="2730" font-size="10" style="fill:blue">altitudTramo</text><path d="M880 2640 C900 2640 880 2740 900 2740" style="fill:transparent;stroke:black" /><rect x="966" y="2720" width="137" height="40" style="fill:green;stroke:black;stroke-width:1" /><text x="976" y="2730" font-size="8" style="fill:white">164</text><rect x="680" y="2820" width="200" height="40" style="fill:white;stroke:black;stroke-width:1" /><text x="690" y="2830" font-size="10" style="fill:blue">numeroSectorCircuito</text><path d="M660 2590 C680 2590 660 2840 680 2840" style="fill:transparent;stroke:black" /><rect x="746" y="2820" width="137" height="40" style="fill:green;stroke:black;stroke-width:1" /><text x="756" y="2830" font-size="8" style="fill:white">2</text><rect x="460" y="2920" width="200" height="40" style="fill:white;stroke:black;stroke-width:1" /><text x="470" y="2930" font-size="10" style="fill:blue">tramo</text><path d="M440 1190 C460 1190 440 2940 460 2940" style="fill:transparent;stroke:black" /><rect x="680" y="2920" width="200" height="40" style="fill:white;stroke:black;stroke-width:1" /><text x="690" y="2930" font-size="10" style="fill:blue">distanciaTramoEnMetros</text><path d="M660 2940 C680 2940 660 2940 680 2940" style="fill:transparent;stroke:black" /><text x="690" y="2940" font-size="8" style="fill:black">unidad: m</text><rect x="746" y="2920" width="137" height="40" style="fill:green;stroke:black;stroke-width:1" /><text x="756" y="2930" font-size="8" style="fill:white">280</text><rect x="680" y="2970" width="200" height="40" style="fill:white;stroke:black;stroke-width:1" /><text x="690" y="2980" font-size="10" style="fill:blue">coordenadaFinalTramo</text><path d="M660 2940 C680 2940 660 2990 680 2990" style="fill:transparent;stroke:black" /><rect x="900" y="2970" width="200" height="40" style="fill:white;stroke:black;stroke-width:1" /><text x="910" y="2980" font-size="10" style="fill:blue">latitudTramo</text><path d="M880 2990 C900 2990 880 2990 900 2990" style="fill:transparent;stroke:black" /><rect x="966" y="2970" width="137" height="40" style="fill:green;stroke:black;stroke-width:1" /><text x="976" y="2980" font-size="8" style="fill:white">14.964950</text><rect x="900" y="3020" width="200" height="40" style="fill:white;stroke:black;stroke-width:1" /><text x="910" y="3030" font-size="10" style="fill:blue">longitudTramo</text><path d="M880 2990 C900 2990 880 3040 900 3040" style="fill:transparent;stroke:black" /><rect x="966" y="3020" width="137" height="40" style="fill:green;stroke:black;stroke-width:1" /><text x="976" y="3030" font-size="8" style="fill:white">103.087500</text><rect x="900" y="3070" width="200" height="40" style="fill:white;stroke:black;stroke-width:1" /><text x="910" y="3080" font-size="10" style="fill:blue">altitudTramo</text><path d="M880 2990 C900 2990 880 3090 900 3090" style="fill:transparent;stroke:black" /><rect x="966" y="3070" width="137" height="40" style="fill:green;stroke:black;stroke-width:1" /><text x="976" y="3080" font-size="8" style="fill:white">165</text><rect x="680" y="3170" width="200" height="40" style="fill:white;stroke:black;stroke-width:1" /><text x="690" y="3180" font-size="10" style="fill:blue">numeroSectorCircuito</text><path d="M660 2940 C680 2940 660 3190 680 3190" style="fill:transparent;stroke:black" /><rect x="746" y="3170" width="137" height="40" style="fill:green;stroke:black;stroke-width:1" /><text x="756" y="3180" font-size="8" style="fill:white">2</text><rect x="460" y="3270" width="200" height="40" style="fill:white;stroke:black;stroke-width:1" /><text x="470" y="3280" font-size="10" style="fill:blue">tramo</text><path d="M440 1190 C460 1190 440 3290 460 3290" style="fill:transparent;stroke:black" /><rect x="680" y="3270" width="200" height="40" style="fill:white;stroke:black;stroke-width:1" /><text x="690" y="3280" font-size="10" style="fill:blue">distanciaTramoEnMetros</text><path d="M660 3290 C680 3290 660 3290 680 3290" style="fill:transparent;stroke:black" /><text x="690" y="3290" font-size="8" style="fill:black">unidad: m</text><rect x="746" y="3270" width="137" height="40" style="fill:green;stroke:black;stroke-width:1" /><text x="756" y="3280" font-size="8" style="fill:white">270</text><rect x="680" y="3320" width="200" height="40" style="fill:white;stroke:black;stroke-width:1" /><text x="690" y="3330" font-size="10" style="fill:blue">coordenadaFinalTramo</text><path d="M660 3290 C680 3290 660 3340 680 3340" style="fill:transparent;stroke:black" /><rect x="900" y="3320" width="200" height="40" style="fill:white;stroke:black;stroke-width:1" /><text x="910" y="3330" font-size="10" style="fill:blue">latitudTramo</text><path d="M880 3340 C900 3340 880 3340 900 3340" style="fill:transparent;stroke:black" /><rect x="966" y="3320" width="137" height="40" style="fill:green;stroke:black;stroke-width:1" /><text x="976" y="3330" font-size="8" style="fill:white">14.965250</text><rect x="900" y="3370" width="200" height="40" style="fill:white;stroke:black;stroke-width:1" /><text x="910" y="3380" font-size="10" style="fill:blue">longitudTramo</text><path d="M880 3340 C900 3340 880 3390 900 3390" style="fill:transparent;stroke:black" /><rect x="966" y="3370" width="137" height="40" style="fill:green;stroke:black;stroke-width:1" /><text x="976" y="3380" font-size="8" style="fill:white">103.087900</text><rect x="900" y="3420" width="200" height="40" style="fill:white;stroke:black;stroke-width:1" /><text x="910" y="3430" font-size="10" style="fill:blue">altitudTramo</text><path d="M880 3340 C900 3340 880 3440 900 3440" style="fill:transparent;stroke:black" /><rect x="966" y="3420" width="137" height="40" style="fill:green;stroke:black;stroke-width:1" /><text x="976" y="3430" font-size="8" style="fill:white">165</text><rect x="680" y="3520" width="200" height="40" style="fill:white;stroke:black;stroke-width:1" /><text x="690" y="3530" font-size="10" style="fill:blue">numeroSectorCircuito</text><path d="M660 3290 C680 3290 660 3540 680 3540" style="fill:transparent;stroke:black" /><rect x="746" y="3520" width="137" height="40" style="fill:green;stroke:black;stroke-width:1" /><text x="756" y="3530" font-size="8" style="fill:white">2</text><rect x="460" y="3620" width="200" height="40" style="fill:white;stroke:black;stroke-width:1" /><text x="470" y="3630" font-size="10" style="fill:blue">tramo</text><path d="M440 1190 C460 1190 440 3640 460 3640" style="fill:transparent;stroke:black" /><rect x="680" y="3620" width="200" height="40" style="fill:white;stroke:black;stroke-width:1" /><text x="690" y="3630" font-size="10" style="fill:blue">distanciaTramoEnMetros</text><path d="M660 3640 C680 3640 660 3640 680 3640" style="fill:transparent;stroke:black" /><text x="690" y="3640" font-size="8" style="fill:black">unidad: m</text><rect x="746" y="3620" width="137" height="40" style="fill:green;stroke:black;stroke-width:1" /><text x="756" y="3630" font-size="8" style="fill:white">270</text><rect x="680" y="3670" width="200" height="40" style="fill:white;stroke:black;stroke-width:1" /><text x="690" y="3680" font-size="10" style="fill:blue">coordenadaFinalTramo</text><path d="M660 3640 C680 3640 660 3690 680 3690" style="fill:transparent;stroke:black" /><rect x="900" y="3670" width="200" height="40" style="fill:white;stroke:black;stroke-width:1" /><text x="910" y="3680" font-size="10" style="fill:blue">latitudTramo</text><path d="M880 3690 C900 3690 880 3690 900 3690" style="fill:transparent;stroke:black" /><rect x="966" y="3670" width="137" height="40" style="fill:green;stroke:black;stroke-width:1" /><text x="976" y="3680" font-size="8" style="fill:white">14.965500</text><rect x="900" y="3720" width="200" height="40" style="fill:white;stroke:black;stroke-width:1" /><text x="910" y="3730" font-size="10" style="fill:blue">longitudTramo</text><path d="M880 3690 C900 3690 880 3740 900 3740" style="fill:transparent;stroke:black" /><rect x="966" y="3720" width="137" height="40" style="fill:green;stroke:black;stroke-width:1" /><text x="976" y="3730" font-size="8" style="fill:white">103.088250</text><rect x="900" y="3770" width="200" height="40" style="fill:white;stroke:black;stroke-width:1" /><text x="910" y="3780" font-size="10" style="fill:blue">altitudTramo</text><path d="M880 3690 C900 3690 880 3790 900 3790" style="fill:transparent;stroke:black" /><rect x="966" y="3770" width="137" height="40" style="fill:green;stroke:black;stroke-width:1" /><text x="976" y="3780" font-size="8" style="fill:white">165</text><rect x="680" y="3870" width="200" height="40" style="fill:white;stroke:black;stroke-width:1" /><text x="690" y="3880" font-size="10" style="fill:blue">numeroSectorCircuito</text><path d="M660 3640 C680 3640 660 3890 680 3890" style="fill:transparent;stroke:black" /><rect x="746" y="3870" width="137" height="40" style="fill:green;stroke:black;stroke-width:1" /><text x="756" y="3880" font-size="8" style="fill:white">2</text><rect x="460" y="3970" width="200" height="40" style="fill:white;stroke:black;stroke-width:1" /><text x="470" y="3980" font-size="10" style="fill:blue">tramo</text><path d="M440 1190 C460 1190 440 3990 460 3990" style="fill:transparent;stroke:black" /><rect x="680" y="3970" width="200" height="40" style="fill:white;stroke:black;stroke-width:1" /><text x="690" y="3980" font-size="10" style="fill:blue">distanciaTramoEnMetros</text><path d="M660 3990 C680 3990 660 3990 680 3990" style="fill:transparent;stroke:black" /><text x="690" y="3990" font-size="8" style="fill:black">unidad: m</text><rect x="746" y="3970" width="137" height="40" style="fill:green;stroke:black;stroke-width:1" /><text x="756" y="3980" font-size="8" style="fill:white">420</text><rect x="680" y="4020" width="200" height="40" style="fill:white;stroke:black;stroke-width:1" /><text x="690" y="4030" font-size="10" style="fill:blue">coordenadaFinalTramo</text><path d="M660 3990 C680 3990 660 4040 680 4040" style="fill:transparent;stroke:black" /><rect x="900" y="4020" width="200" height="40" style="fill:white;stroke:black;stroke-width:1" /><text x="910" y="4030" font-size="10" style="fill:blue">latitudTramo</text><path d="M880 4040 C900 4040 880 4040 900 4040" style="fill:transparent;stroke:black" /><rect x="966" y="4020" width="137" height="40" style="fill:green;stroke:black;stroke-width:1" /><text x="976" y="4030" font-size="8" style="fill:white">14.965150</text><rect x="900" y="4070" width="200" height="40" style="fill:white;stroke:black;stroke-width:1" /><text x="910" y="4080" font-size="10" style="fill:blue">longitudTramo</text><path d="M880 4040 C900 4040 880 4090 900 4090" style="fill:transparent;stroke:black" /><rect x="966" y="4070" width="137" height="40" style="fill:green;stroke:black;stroke-width:1" /><text x="976" y="4080" font-size="8" style="fill:white">103.088600</text><rect x="900" y="4120" width="200" height="40" style="fill:white;stroke:black;stroke-width:1" /><text x="910" y="4130" font-size="10" style="fill:blue">altitudTramo</text><path d="M880 4040 C900 4040 880 4140 900 4140" style="fill:transparent;stroke:black" /><rect x="966" y="4120" width="137" height="40" style="fill:green;stroke:black;stroke-width:1" /><text x="976" y="4130" font-size="8" style="fill:white">165</text><rect x="680" y="4220" width="200" height="40" style="fill:white;stroke:black;stroke-width:1" /><text x="690" y="4230" font-size="10" style="fill:blue">numeroSectorCircuito</text><path d="M660 3990 C680 3990 660 4240 680 4240" style="fill:transparent;stroke:black" /><rect x="746" y="4220" width="137" height="40" style="fill:green;stroke:black;stroke-width:1" /><text x="756" y="4230" font-size="8" style="fill:white">3</text><rect x="460" y="4320" width="200" height="40" style="fill:white;stroke:black;stroke-width:1" /><text x="470" y="4330" font-size="10" style="fill:blue">tramo</text><path d="M440 1190 C460 1190 440 4340 460 4340" style="fill:transparent;stroke:black" /><rect x="680" y="4320" width="200" height="40" style="fill:white;stroke:black;stroke-width:1" /><text x="690" y="4330" font-size="10" style="fill:blue">distanciaTramoEnMetros</text><path d="M660 4340 C680 4340 660 4340 680 4340" style="fill:transparent;stroke:black" /><text x="690" y="4340" font-size="8" style="fill:black">unidad: m</text><rect x="746" y="4320" width="137" height="40" style="fill:green;stroke:black;stroke-width:1" /><text x="756" y="4330" font-size="8" style="fill:white">420</text><rect x="680" y="4370" width="200" height="40" style="fill:white;stroke:black;stroke-width:1" /><text x="690" y="4380" font-size="10" style="fill:blue">coordenadaFinalTramo</text><path d="M660 4340 C680 4340 660 4390 680 4390" style="fill:transparent;stroke:black" /><rect x="900" y="4370" width="200" height="40" style="fill:white;stroke:black;stroke-width:1" /><text x="910" y="4380" font-size="10" style="fill:blue">latitudTramo</text><path d="M880 4390 C900 4390 880 4390 900 4390" style="fill:transparent;stroke:black" /><rect x="966" y="4370" width="137" height="40" style="fill:green;stroke:black;stroke-width:1" /><text x="976" y="4380" font-size="8" style="fill:white">14.964650</text><rect x="900" y="4420" width="200" height="40" style="fill:white;stroke:black;stroke-width:1" /><text x="910" y="4430" font-size="10" style="fill:blue">longitudTramo</text><path d="M880 4390 C900 4390 880 4440 900 4440" style="fill:transparent;stroke:black" /><rect x="966" y="4420" width="137" height="40" style="fill:green;stroke:black;stroke-width:1" /><text x="976" y="4430" font-size="8" style="fill:white">103.088200</text><rect x="900" y="4470" width="200" height="40" style="fill:white;stroke:black;stroke-width:1" /><text x="910" y="4480" font-size="10" style="fill:blue">altitudTramo</text><path d="M880 4390 C900 4390 880 4490 900 4490" style="fill:transparent;stroke:black" /><rect x="966" y="4470" width="137" height="40" style="fill:green;stroke:black;stroke-width:1" /><text x="976" y="4480" font-size="8" style="fill:white">164</text><rect x="680" y="4570" width="200" height="40" style="fill:white;stroke:black;stroke-width:1" /><text x="690" y="4580" font-size="10" style="fill:blue">numeroSectorCircuito</text><path d="M660 4340 C680 4340 660 4590 680 4590" style="fill:transparent;stroke:black" /><rect x="746" y="4570" width="137" height="40" style="fill:green;stroke:black;stroke-width:1" /><text x="756" y="4580" font-size="8" style="fill:white">3</text><rect x="460" y="4670" width="200" height="40" style="fill:white;stroke:black;stroke-width:1" /><text x="470" y="4680" font-size="10" style="fill:blue">tramo</text><path d="M440 1190 C460 1190 440 4690 460 4690" style="fill:transparent;stroke:black" /><rect x="680" y="4670" width="200" height="40" style="fill:white;stroke:black;stroke-width:1" /><text x="690" y="4680" font-size="10" style="fill:blue">distanciaTramoEnMetros</text><path d="M660 4690 C680 4690 660 4690 680 4690" style="fill:transparent;stroke:black" /><text x="690" y="4690" font-size="8" style="fill:black">unidad: m</text><rect x="746" y="4670" width="137" height="40" style="fill:green;stroke:black;stroke-width:1" /><text x="756" y="4680" font-size="8" style="fill:white">420</text><rect x="680" y="4720" width="200" height="40" style="fill:white;stroke:black;stroke-width:1" /><text x="690" y="4730" font-size="10" style="fill:blue">coordenadaFinalTramo</text><path d="M660 4690 C680 4690 660 4740 680 4740" style="fill:transparent;stroke:black" /><rect x="900" y="4720" width="200" height="40" style="fill:white;stroke:black;stroke-width:1" /><text x="910" y="4730" font-size="10" style="fill:blue">latitudTramo</text><path d="M880 4740 C900 4740 880 4740 900 4740" style="fill:transparent;stroke:black" /><rect x="966" y="4720" width="137" height="40" style="fill:green;stroke:black;stroke-width:1" /><text x="976" y="4730" font-size="8" style="fill:white">14.964150</text><rect x="900" y="4770" width="200" height="40" style="fill:white;stroke:black;stroke-width:1" /><text x="910" y="4780" font-size="10" style="fill:blue">longitudTramo</text><path d="M880 4740 C900 4740 880 4790 900 4790" style="fill:transparent;stroke:black" /><rect x="966" y="4770" width="137" height="40" style="fill:green;stroke:black;stroke-width:1" /><text x="976" y="4780" font-size="8" style="fill:white">103.087650</text><rect x="900" y="4820" width="200" height="40" style="fill:white;stroke:black;stroke-width:1" /><text x="910" y="4830" font-size="10" style="fill:blue">altitudTramo</text><path d="M880 4740 C900 4740 880 4840 900 4840" style="fill:transparent;stroke:black" /><rect x="966" y="4820" width="137" height="40" style="fill:green;stroke:black;stroke-width:1" /><text x="976" y="4830" font-size="8" style="fill:white">164</text><rect x="680" y="4920" width="200" height="40" style="fill:white;stroke:black;stroke-width:1" /><text x="690" y="4930" font-size="10" style="fill:blue">numeroSectorCircuito</text><path d="M660 4690 C680 4690 660 4940 680 4940" style="fill:transparent;stroke:black" /><rect x="746" y="4920" width="137" height="40" style="fill:green;stroke:black;stroke-width:1" /><text x="756" y="4930" font-size="8" style="fill:white">3</text><rect x="460" y="5020" width="200" height="40" style="fill:white;stroke:black;stroke-width:1" /><text x="470" y="5030" font-size="10" style="fill:blue">tramo</text><path d="M440 1190 C460 1190 440 5040 460 5040" style="fill:transparent;stroke:black" /><rect x="680" y="5020" width="200" height="40" style="fill:white;stroke:black;stroke-width:1" /><text x="690" y="5030" font-size="10" style="fill:blue">distanciaTramoEnMetros</text><path d="M660 5040 C680 5040 660 5040 680 5040" style="fill:transparent;stroke:black" /><text x="690" y="5040" font-size="8" style="fill:black">unidad: m</text><rect x="746" y="5020" width="137" height="40" style="fill:green;stroke:black;stroke-width:1" /><text x="756" y="5030" font-size="8" style="fill:white">384</text><rect x="680" y="5070" width="200" height="40" style="fill:white;stroke:black;stroke-width:1" /><text x="690" y="5080" font-size="10" style="fill:blue">coordenadaFinalTramo</text><path d="M660 5040 C680 5040 660 5090 680 5090" style="fill:transparent;stroke:black" /><rect x="900" y="5070" width="200" height="40" style="fill:white;stroke:black;stroke-width:1" /><text x="910" y="5080" font-size="10" style="fill:blue">latitudTramo</text><path d="M880 5090 C900 5090 880 5090 900 5090" style="fill:transparent;stroke:black" /><rect x="966" y="5070" width="137" height="40" style="fill:green;stroke:black;stroke-width:1" /><text x="976" y="5080" font-size="8" style="fill:white">14.963750</text><rect x="900" y="5120" width="200" height="40" style="fill:white;stroke:black;stroke-width:1" /><text x="910" y="5130" font-size="10" style="fill:blue">longitudTramo</text><path d="M880 5090 C900 5090 880 5140 900 5140" style="fill:transparent;stroke:black" /><rect x="966" y="5120" width="137" height="40" style="fill:green;stroke:black;stroke-width:1" /><text x="976" y="5130" font-size="8" style="fill:white">103.086900</text><rect x="900" y="5170" width="200" height="40" style="fill:white;stroke:black;stroke-width:1" /><text x="910" y="5180" font-size="10" style="fill:blue">altitudTramo</text><path d="M880 5090 C900 5090 880 5190 900 5190" style="fill:transparent;stroke:black" /><rect x="966" y="5170" width="137" height="40" style="fill:green;stroke:black;stroke-width:1" /><text x="976" y="5180" font-size="8" style="fill:white">163</text><rect x="680" y="5270" width="200" height="40" style="fill:white;stroke:black;stroke-width:1" /><text x="690" y="5280" font-size="10" style="fill:blue">numeroSectorCircuito</text><path d="M660 5040 C680 5040 660 5290 680 5290" style="fill:transparent;stroke:black" /><rect x="746" y="5270" width="137" height="40" style="fill:green;stroke:black;stroke-width:1" /><text x="756" y="5280" font-size="8" style="fill:white">3</text><rect x="240" y="5420" width="200" height="40" style="fill:white;stroke:black;stroke-width:1" /><text x="250" y="5430" font-size="10" style="fill:blue">vencedorCarrera</text><path d="M220 40 C240 40 220 5440 240 5440" style="fill:transparent;stroke:black" /><rect x="460" y="5420" width="200" height="40" style="fill:white;stroke:black;stroke-width:1" /><text x="470" y="5430" font-size="10" style="fill:blue">nombreVencedor</text><path d="M440 5440 C460 5440 440 5440 460 5440" style="fill:transparent;stroke:black" /><rect x="526" y="5420" width="137" height="40" style="fill:green;stroke:black;stroke-width:1" /><text x="536" y="5430" font-size="8" style="fill:white">Marc Márquez (Ducati Lenovo Team)</text><rect x="460" y="5470" width="200" height="40" style="fill:white;stroke:black;stroke-width:1" /><text x="470" y="5480" font-size="10" style="fill:blue">tiempoVencedor</text><path d="M440 5440 C460 5440 440 5490 460 5490" style="fill:transparent;stroke:black" /><rect x="526" y="5470" width="137" height="40" style="fill:green;stroke:black;stroke-width:1" /><text x="536" y="5480" font-size="8" style="fill:white"> Tiempo total: 39'37.244 </text><rect x="240" y="5570" width="200" height="40" style="fill:white;stroke:black;stroke-width:1" /><text x="250" y="5580" font-size="10" style="fill:blue">clasificados</text><path d="M220 40 C240 40 220 5590 240 5590" style="fill:transparent;stroke:black" /><rect x="460" y="5570" width="200" height="40" style="fill:white;stroke:black;stroke-width:1" /><text x="470" y="5580" font-size="10" style="fill:blue">clasificado1</text><path d="M440 5590 C460 5590 440 5590 460 5590" style="fill:transparent;stroke:black" /><rect x="526" y="5570" width="137" height="40" style="fill:green;stroke:black;stroke-width:1" /><text x="536" y="5580" font-size="8" style="fill:white"> Marc Márquez </text><rect x="460" y="5620" width="200" height="40" style="fill:white;stroke:black;stroke-width:1" /><text x="470" y="5630" font-size="10" style="fill:blue">clasificado2</text><path d="M440 5590 C460 5590 440 5640 460 5640" style="fill:transparent;stroke:black" /><rect x="526" y="5620" width="137" height="40" style="fill:green;stroke:black;stroke-width:1" /><text x="536" y="5630" font-size="8" style="fill:white"> Álex Márquez </text><rect x="460" y="5670" width="200" height="40" style="fill:white;stroke:black;stroke-width:1" /><text x="470" y="5680" font-size="10" style="fill:blue">clasificado3</text><path d="M440 5590 C460 5590 440 5690 460 5690" style="fill:transparent;stroke:black" /><rect x="526" y="5670" width="137" height="40" style="fill:green;stroke:black;stroke-width:1" /><text x="536" y="5680" font-size="8" style="fill:white"> Francesco Bagnaia</text></svg>