<?xml version="1.0" encoding="utf-8"?><svg width="auto" height="7070" style="overflow:visible " version="1.1" xmlns="http://www.w3.org/2000/svg"><rect x="20" y="20" width="200" height="40" style="fill:white;stroke:black;stroke-width:1" /><text x="30" y="30" font-size="10" style="fill:blue">xs:schema</text><text x="30" y="40" font-size="8" style="fill:black">elementFormDefault: qualified</text><text x="30" y="50" font-size="8" style="fill:black">xmlns:xs: http://www.w3.org/2001/XMLSchema</text><text x="30" y="60" font-size="8" style="fill:black">targetNamespace: http://www.uniovi.es</text><text x="30" y="70" font-size="8" style="fill:black">xmlns: http://www.uniovi.es</text><rect x="240" y="20" width="200" height="40" style="fill:white;stroke:black;stroke-width:1" /><text x="250" y="30" font-size="10" style="fill:blue">xs:element</text><path d="M220 40 C240 40 220 40 240 40" style="fill:transparent;stroke:black" /><text x="250" y="40" font-size="8" style="fill:black">name: circuitos</text><rect x="460" y="20" width="200" height="40" style="fill:white;stroke:black;stroke-width:1" /><text x="470" y="30" font-size="10" style="fill:blue">xs:complexType</text><path d="M440 40 C460 40 440 40 460 40" style="fill:transparent;stroke:black" /><rect x="680" y="20" width="200" height="40" style="fill:white;stroke:black;stroke-width:1" /><text x="690" y="30" font-size="10" style="fill:blue">xs:sequence</text><path d="M660 40 C680 40 660 40 680 40" style="fill:transparent;stroke:black" /><rect x="900" y="20" width="200" height="40" style="fill:white;stroke:black;stroke-width:1" /><text x="910" y="30" font-size="10" style="fill:blue">xs:element</text><path d="M880 40 C900 40 880 40 900 40" style="fill:transparent;stroke:black" /><text x="910" y="40" font-size="8" style="fill:black">minOccurs: 1</text><text x="910" y="50" font-size="8" style="fill:black">maxOccurs: unbounded</text><text x="910" y="60" font-size="8" style="fill:black">ref: circuito</text><rect x="240" y="220" width="200" height="40" style="fill:white;stroke:black;stroke-width:1" /><text x="250" y="230" font-size="10" style="fill:blue">xs:element</text><path d="M220 40 C240 40 220 240 240 240" style="fill:transparent;stroke:black" /><text x="250" y="240" font-size="8" style="fill:black">name: circuito</text><rect x="460" y="220" width="200" height="40" style="fill:white;stroke:black;stroke-width:1" /><text x="470" y="230" font-size="10" style="fill:blue">xs:complexType</text><path d="M440 240 C460 240 440 240 460 240" style="fill:transparent;stroke:black" /><rect x="680" y="220" width="200" height="40" style="fill:white;stroke:black;stroke-width:1" /><text x="690" y="230" font-size="10" style="fill:blue">xs:sequence</text><path d="M660 240 C680 240 660 240 680 240" style="fill:transparent;stroke:black" /><rect x="900" y="220" width="200" height="40" style="fill:white;stroke:black;stroke-width:1" /><text x="910" y="230" font-size="10" style="fill:blue">xs:element</text><path d="M880 240 C900 240 880 240 900 240" style="fill:transparent;stroke:black" /><text x="910" y="240" font-size="8" style="fill:black">ref: nombreCircuito</text><rect x="900" y="270" width="200" height="40" style="fill:white;stroke:black;stroke-width:1" /><text x="910" y="280" font-size="10" style="fill:blue">xs:element</text><path d="M880 240 C900 240 880 290 900 290" style="fill:transparent;stroke:black" /><text x="910" y="290" font-size="8" style="fill:black">ref: longitudCircuito</text><rect x="900" y="320" width="200" height="40" style="fill:white;stroke:black;stroke-width:1" /><text x="910" y="330" font-size="10" style="fill:blue">xs:element</text><path d="M880 240 C900 240 880 340 900 340" style="fill:transparent;stroke:black" /><text x="910" y="340" font-size="8" style="fill:black">ref: anchuraMedia</text><rect x="900" y="370" width="200" height="40" style="fill:white;stroke:black;stroke-width:1" /><text x="910" y="380" font-size="10" style="fill:blue">xs:element</text><path d="M880 240 C900 240 880 390 900 390" style="fill:transparent;stroke:black" /><text x="910" y="390" font-size="8" style="fill:black">ref: fechaCarrera</text><rect x="900" y="420" width="200" height="40" style="fill:white;stroke:black;stroke-width:1" /><text x="910" y="430" font-size="10" style="fill:blue">xs:element</text><path d="M880 240 C900 240 880 440 900 440" style="fill:transparent;stroke:black" /><text x="910" y="440" font-size="8" style="fill:black">ref: horaEsp</text><rect x="900" y="470" width="200" height="40" style="fill:white;stroke:black;stroke-width:1" /><text x="910" y="480" font-size="10" style="fill:blue">xs:element</text><path d="M880 240 C900 240 880 490 900 490" style="fill:transparent;stroke:black" /><text x="910" y="490" font-size="8" style="fill:black">ref: numeroVueltas</text><rect x="900" y="520" width="200" height="40" style="fill:white;stroke:black;stroke-width:1" /><text x="910" y="530" font-size="10" style="fill:blue">xs:element</text><path d="M880 240 C900 240 880 540 900 540" style="fill:transparent;stroke:black" /><text x="910" y="540" font-size="8" style="fill:black">ref: localidadProxima</text><rect x="900" y="570" width="200" height="40" style="fill:white;stroke:black;stroke-width:1" /><text x="910" y="580" font-size="10" style="fill:blue">xs:element</text><path d="M880 240 C900 240 880 590 900 590" style="fill:transparent;stroke:black" /><text x="910" y="590" font-size="8" style="fill:black">ref: paisDelCircuito</text><rect x="900" y="620" width="200" height="40" style="fill:white;stroke:black;stroke-width:1" /><text x="910" y="630" font-size="10" style="fill:blue">xs:element</text><path d="M880 240 C900 240 880 640 900 640" style="fill:transparent;stroke:black" /><text x="910" y="640" font-size="8" style="fill:black">ref: nombrePatrocinadorP</text><rect x="900" y="670" width="200" height="40" style="fill:white;stroke:black;stroke-width:1" /><text x="910" y="680" font-size="10" style="fill:blue">xs:element</text><path d="M880 240 C900 240 880 690 900 690" style="fill:transparent;stroke:black" /><text x="910" y="690" font-size="8" style="fill:black">ref: referencias</text><rect x="900" y="720" width="200" height="40" style="fill:white;stroke:black;stroke-width:1" /><text x="910" y="730" font-size="10" style="fill:blue">xs:element</text><path d="M880 240 C900 240 880 740 900 740" style="fill:transparent;stroke:black" /><text x="910" y="740" font-size="8" style="fill:black">ref: galeriaFotos</text><rect x="900" y="770" width="200" height="40" style="fill:white;stroke:black;stroke-width:1" /><text x="910" y="780" font-size="10" style="fill:blue">xs:element</text><path d="M880 240 C900 240 880 790 900 790" style="fill:transparent;stroke:black" /><text x="910" y="790" font-size="8" style="fill:black">ref: galeriaVideos</text><rect x="900" y="820" width="200" height="40" style="fill:white;stroke:black;stroke-width:1" /><text x="910" y="830" font-size="10" style="fill:blue">xs:element</text><path d="M880 240 C900 240 880 840 900 840" style="fill:transparent;stroke:black" /><text x="910" y="840" font-size="8" style="fill:black">ref: puntoOrigen</text><rect x="900" y="870" width="200" height="40" style="fill:white;stroke:black;stroke-width:1" /><text x="910" y="880" font-size="10" style="fill:blue">xs:element</text><path d="M880 240 C900 240 880 890 900 890" style="fill:transparent;stroke:black" /><text x="910" y="890" font-size="8" style="fill:black">ref: tramos</text><rect x="900" y="920" width="200" height="40" style="fill:white;stroke:black;stroke-width:1" /><text x="910" y="930" font-size="10" style="fill:blue">xs:element</text><path d="M880 240 C900 240 880 940 900 940" style="fill:transparent;stroke:black" /><text x="910" y="940" font-size="8" style="fill:black">ref: vencedorCarrera</text><rect x="900" y="970" width="200" height="40" style="fill:white;stroke:black;stroke-width:1" /><text x="910" y="980" font-size="10" style="fill:blue">xs:element</text><path d="M880 240 C900 240 880 990 900 990" style="fill:transparent;stroke:black" /><text x="910" y="990" font-size="8" style="fill:black">ref: clasificados</text><rect x="240" y="1170" width="200" height="40" style="fill:white;stroke:black;stroke-width:1" /><text x="250" y="1180" font-size="10" style="fill:blue">xs:element</text><path d="M220 40 C240 40 220 1190 240 1190" style="fill:transparent;stroke:black" /><text x="250" y="1190" font-size="8" style="fill:black">name: nombreCircuito</text><text x="250" y="1200" font-size="8" style="fill:black">type: xs:string</text><rect x="240" y="1220" width="200" height="40" style="fill:white;stroke:black;stroke-width:1" /><text x="250" y="1230" font-size="10" style="fill:blue">xs:element</text><path d="M220 40 C240 40 220 1240 240 1240" style="fill:transparent;stroke:black" /><text x="250" y="1240" font-size="8" style="fill:black">name: longitudCircuito</text><rect x="460" y="1220" width="200" height="40" style="fill:white;stroke:black;stroke-width:1" /><text x="470" y="1230" font-size="10" style="fill:blue">xs:complexType</text><path d="M440 1240 C460 1240 440 1240 460 1240" style="fill:transparent;stroke:black" /><rect x="680" y="1220" width="200" height="40" style="fill:white;stroke:black;stroke-width:1" /><text x="690" y="1230" font-size="10" style="fill:blue">xs:simpleContent</text><path d="M660 1240 C680 1240 660 1240 680 1240" style="fill:transparent;stroke:black" /><rect x="900" y="1220" width="200" height="40" style="fill:white;stroke:black;stroke-width:1" /><text x="910" y="1230" font-size="10" style="fill:blue">xs:extension</text><path d="M880 1240 C900 1240 880 1240 900 1240" style="fill:transparent;stroke:black" /><text x="910" y="1240" font-size="8" style="fill:black">base: xs:double</text><rect x="1120" y="1220" width="200" height="40" style="fill:white;stroke:black;stroke-width:1" /><text x="1130" y="1230" font-size="10" style="fill:blue">xs:attribute</text><path d="M1100 1240 C1120 1240 1100 1240 1120 1240" style="fill:transparent;stroke:black" /><text x="1130" y="1240" font-size="8" style="fill:black">name: unidad</text><text x="1130" y="1250" font-size="8" style="fill:black">type: xs:string</text><text x="1130" y="1260" font-size="8" style="fill:black">use: required</text><rect x="240" y="1470" width="200" height="40" style="fill:white;stroke:black;stroke-width:1" /><text x="250" y="1480" font-size="10" style="fill:blue">xs:element</text><path d="M220 40 C240 40 220 1490 240 1490" style="fill:transparent;stroke:black" /><text x="250" y="1490" font-size="8" style="fill:black">name: anchuraMedia</text><rect x="460" y="1470" width="200" height="40" style="fill:white;stroke:black;stroke-width:1" /><text x="470" y="1480" font-size="10" style="fill:blue">xs:complexType</text><path d="M440 1490 C460 1490 440 1490 460 1490" style="fill:transparent;stroke:black" /><rect x="680" y="1470" width="200" height="40" style="fill:white;stroke:black;stroke-width:1" /><text x="690" y="1480" font-size="10" style="fill:blue">xs:simpleContent</text><path d="M660 1490 C680 1490 660 1490 680 1490" style="fill:transparent;stroke:black" /><rect x="900" y="1470" width="200" height="40" style="fill:white;stroke:black;stroke-width:1" /><text x="910" y="1480" font-size="10" style="fill:blue">xs:extension</text><path d="M880 1490 C900 1490 880 1490 900 1490" style="fill:transparent;stroke:black" /><text x="910" y="1490" font-size="8" style="fill:black">base: xs:double</text><rect x="1120" y="1470" width="200" height="40" style="fill:white;stroke:black;stroke-width:1" /><text x="1130" y="1480" font-size="10" style="fill:blue">xs:attribute</text><path d="M1100 1490 C1120 1490 1100 1490 1120 1490" style="fill:transparent;stroke:black" /><text x="1130" y="1490" font-size="8" style="fill:black">name: unidad</text><text x="1130" y="1500" font-size="8" style="fill:black">type: xs:string</text><text x="1130" y="1510" font-size="8" style="fill:black">use: required</text><rect x="240" y="1720" width="200" height="40" style="fill:white;stroke:black;stroke-width:1" /><text x="250" y="1730" font-size="10" style="fill:blue">xs:element</text><path d="M220 40 C240 40 220 1740 240 1740" style="fill:transparent;stroke:black" /><text x="250" y="1740" font-size="8" style="fill:black">name: fechaCarrera</text><text x="250" y="1750" font-size="8" style="fill:black">type: xs:date</text><rect x="240" y="1770" width="200" height="40" style="fill:white;stroke:black;stroke-width:1" /><text x="250" y="1780" font-size="10" style="fill:blue">xs:element</text><path d="M220 40 C240 40 220 1790 240 1790" style="fill:transparent;stroke:black" /><text x="250" y="1790" font-size="8" style="fill:black">name: horaEsp</text><text x="250" y="1800" font-size="8" style="fill:black">type: xs:time</text><rect x="240" y="1820" width="200" height="40" style="fill:white;stroke:black;stroke-width:1" /><text x="250" y="1830" font-size="10" style="fill:blue">xs:element</text><path d="M220 40 C240 40 220 1840 240 1840" style="fill:transparent;stroke:black" /><text x="250" y="1840" font-size="8" style="fill:black">name: numeroVueltas</text><text x="250" y="1850" font-size="8" style="fill:black">type: xs:int</text><rect x="240" y="1870" width="200" height="40" style="fill:white;stroke:black;stroke-width:1" /><text x="250" y="1880" font-size="10" style="fill:blue">xs:element</text><path d="M220 40 C240 40 220 1890 240 1890" style="fill:transparent;stroke:black" /><text x="250" y="1890" font-size="8" style="fill:black">name: localidadProxima</text><text x="250" y="1900" font-size="8" style="fill:black">type: xs:string</text><rect x="240" y="1920" width="200" height="40" style="fill:white;stroke:black;stroke-width:1" /><text x="250" y="1930" font-size="10" style="fill:blue">xs:element</text><path d="M220 40 C240 40 220 1940 240 1940" style="fill:transparent;stroke:black" /><text x="250" y="1940" font-size="8" style="fill:black">name: paisDelCircuito</text><text x="250" y="1950" font-size="8" style="fill:black">type: xs:string</text><rect x="240" y="1970" width="200" height="40" style="fill:white;stroke:black;stroke-width:1" /><text x="250" y="1980" font-size="10" style="fill:blue">xs:element</text><path d="M220 40 C240 40 220 1990 240 1990" style="fill:transparent;stroke:black" /><text x="250" y="1990" font-size="8" style="fill:black">name: nombrePatrocinadorP</text><text x="250" y="2000" font-size="8" style="fill:black">type: xs:string</text><rect x="240" y="2020" width="200" height="40" style="fill:white;stroke:black;stroke-width:1" /><text x="250" y="2030" font-size="10" style="fill:blue">xs:element</text><path d="M220 40 C240 40 220 2040 240 2040" style="fill:transparent;stroke:black" /><text x="250" y="2040" font-size="8" style="fill:black">name: referencias</text><rect x="460" y="2020" width="200" height="40" style="fill:white;stroke:black;stroke-width:1" /><text x="470" y="2030" font-size="10" style="fill:blue">xs:complexType</text><path d="M440 2040 C460 2040 440 2040 460 2040" style="fill:transparent;stroke:black" /><rect x="680" y="2020" width="200" height="40" style="fill:white;stroke:black;stroke-width:1" /><text x="690" y="2030" font-size="10" style="fill:blue">xs:sequence</text><path d="M660 2040 C680 2040 660 2040 680 2040" style="fill:transparent;stroke:black" /><rect x="900" y="2020" width="200" height="40" style="fill:white;stroke:black;stroke-width:1" /><text x="910" y="2030" font-size="10" style="fill:blue">xs:element</text><path d="M880 2040 C900 2040 880 2040 900 2040" style="fill:transparent;stroke:black" /><text x="910" y="2040" font-size="8" style="fill:black">minOccurs: 3</text><text x="910" y="2050" font-size="8" style="fill:black">maxOccurs: unbounded</text><text x="910" y="2060" font-size="8" style="fill:black">ref: referencia</text><rect x="240" y="2220" width="200" height="40" style="fill:white;stroke:black;stroke-width:1" /><text x="250" y="2230" font-size="10" style="fill:blue">xs:element</text><path d="M220 40 C240 40 220 2240 240 2240" style="fill:transparent;stroke:black" /><text x="250" y="2240" font-size="8" style="fill:black">name: referencia</text><rect x="460" y="2220" width="200" height="40" style="fill:white;stroke:black;stroke-width:1" /><text x="470" y="2230" font-size="10" style="fill:blue">xs:complexType</text><path d="M440 2240 C460 2240 440 2240 460 2240" style="fill:transparent;stroke:black" /><rect x="680" y="2220" width="200" height="40" style="fill:white;stroke:black;stroke-width:1" /><text x="690" y="2230" font-size="10" style="fill:blue">xs:simpleContent</text><path d="M660 2240 C680 2240 660 2240 680 2240" style="fill:transparent;stroke:black" /><rect x="900" y="2220" width="200" height="40" style="fill:white;stroke:black;stroke-width:1" /><text x="910" y="2230" font-size="10" style="fill:blue">xs:extension</text><path d="M880 2240 C900 2240 880 2240 900 2240" style="fill:transparent;stroke:black" /><text x="910" y="2240" font-size="8" style="fill:black">base: xs:string</text><rect x="1120" y="2220" width="200" height="40" style="fill:white;stroke:black;stroke-width:1" /><text x="1130" y="2230" font-size="10" style="fill:blue">xs:attribute</text><path d="M1100 2240 C1120 2240 1100 2240 1120 2240" style="fill:transparent;stroke:black" /><text x="1130" y="2240" font-size="8" style="fill:black">name: url</text><text x="1130" y="2250" font-size="8" style="fill:black">type: xs:string</text><text x="1130" y="2260" font-size="8" style="fill:black">use: required</text><rect x="240" y="2470" width="200" height="40" style="fill:white;stroke:black;stroke-width:1" /><text x="250" y="2480" font-size="10" style="fill:blue">xs:element</text><path d="M220 40 C240 40 220 2490 240 2490" style="fill:transparent;stroke:black" /><text x="250" y="2490" font-size="8" style="fill:black">name: galeriaFotos</text><rect x="460" y="2470" width="200" height="40" style="fill:white;stroke:black;stroke-width:1" /><text x="470" y="2480" font-size="10" style="fill:blue">xs:complexType</text><path d="M440 2490 C460 2490 440 2490 460 2490" style="fill:transparent;stroke:black" /><rect x="680" y="2470" width="200" height="40" style="fill:white;stroke:black;stroke-width:1" /><text x="690" y="2480" font-size="10" style="fill:blue">xs:sequence</text><path d="M660 2490 C680 2490 660 2490 680 2490" style="fill:transparent;stroke:black" /><rect x="900" y="2470" width="200" height="40" style="fill:white;stroke:black;stroke-width:1" /><text x="910" y="2480" font-size="10" style="fill:blue">xs:element</text><path d="M880 2490 C900 2490 880 2490 900 2490" style="fill:transparent;stroke:black" /><text x="910" y="2490" font-size="8" style="fill:black">minOccurs: 1</text><text x="910" y="2500" font-size="8" style="fill:black">maxOccurs: 5</text><text x="910" y="2510" font-size="8" style="fill:black">ref: fotos</text><rect x="240" y="2670" width="200" height="40" style="fill:white;stroke:black;stroke-width:1" /><text x="250" y="2680" font-size="10" style="fill:blue">xs:element</text><path d="M220 40 C240 40 220 2690 240 2690" style="fill:transparent;stroke:black" /><text x="250" y="2690" font-size="8" style="fill:black">name: fotos</text><rect x="460" y="2670" width="200" height="40" style="fill:white;stroke:black;stroke-width:1" /><text x="470" y="2680" font-size="10" style="fill:blue">xs:complexType</text><path d="M440 2690 C460 2690 440 2690 460 2690" style="fill:transparent;stroke:black" /><rect x="680" y="2670" width="200" height="40" style="fill:white;stroke:black;stroke-width:1" /><text x="690" y="2680" font-size="10" style="fill:blue">xs:simpleContent</text><path d="M660 2690 C680 2690 660 2690 680 2690" style="fill:transparent;stroke:black" /><rect x="900" y="2670" width="200" height="40" style="fill:white;stroke:black;stroke-width:1" /><text x="910" y="2680" font-size="10" style="fill:blue">xs:extension</text><path d="M880 2690 C900 2690 880 2690 900 2690" style="fill:transparent;stroke:black" /><text x="910" y="2690" font-size="8" style="fill:black">base: xs:string</text><rect x="1120" y="2670" width="200" height="40" style="fill:white;stroke:black;stroke-width:1" /><text x="1130" y="2680" font-size="10" style="fill:blue">xs:attribute</text><path d="M1100 2690 C1120 2690 1100 2690 1120 2690" style="fill:transparent;stroke:black" /><text x="1130" y="2690" font-size="8" style="fill:black">name: nombre</text><text x="1130" y="2700" font-size="8" style="fill:black">type: xs:string</text><text x="1130" y="2710" font-size="8" style="fill:black">use: required</text><rect x="240" y="2920" width="200" height="40" style="fill:white;stroke:black;stroke-width:1" /><text x="250" y="2930" font-size="10" style="fill:blue">xs:element</text><path d="M220 40 C240 40 220 2940 240 2940" style="fill:transparent;stroke:black" /><text x="250" y="2940" font-size="8" style="fill:black">name: galeriaVideos</text><rect x="460" y="2920" width="200" height="40" style="fill:white;stroke:black;stroke-width:1" /><text x="470" y="2930" font-size="10" style="fill:blue">xs:complexType</text><path d="M440 2940 C460 2940 440 2940 460 2940" style="fill:transparent;stroke:black" /><rect x="680" y="2920" width="200" height="40" style="fill:white;stroke:black;stroke-width:1" /><text x="690" y="2930" font-size="10" style="fill:blue">xs:sequence</text><path d="M660 2940 C680 2940 660 2940 680 2940" style="fill:transparent;stroke:black" /><rect x="900" y="2920" width="200" height="40" style="fill:white;stroke:black;stroke-width:1" /><text x="910" y="2930" font-size="10" style="fill:blue">xs:element</text><path d="M880 2940 C900 2940 880 2940 900 2940" style="fill:transparent;stroke:black" /><text x="910" y="2940" font-size="8" style="fill:black">minOccurs: 1</text><text x="910" y="2950" font-size="8" style="fill:black">maxOccurs: 3</text><text x="910" y="2960" font-size="8" style="fill:black">ref: videos</text><rect x="240" y="3120" width="200" height="40" style="fill:white;stroke:black;stroke-width:1" /><text x="250" y="3130" font-size="10" style="fill:blue">xs:element</text><path d="M220 40 C240 40 220 3140 240 3140" style="fill:transparent;stroke:black" /><text x="250" y="3140" font-size="8" style="fill:black">name: videos</text><rect x="460" y="3120" width="200" height="40" style="fill:white;stroke:black;stroke-width:1" /><text x="470" y="3130" font-size="10" style="fill:blue">xs:complexType</text><path d="M440 3140 C460 3140 440 3140 460 3140" style="fill:transparent;stroke:black" /><rect x="680" y="3120" width="200" height="40" style="fill:white;stroke:black;stroke-width:1" /><text x="690" y="3130" font-size="10" style="fill:blue">xs:simpleContent</text><path d="M660 3140 C680 3140 660 3140 680 3140" style="fill:transparent;stroke:black" /><rect x="900" y="3120" width="200" height="40" style="fill:white;stroke:black;stroke-width:1" /><text x="910" y="3130" font-size="10" style="fill:blue">xs:extension</text><path d="M880 3140 C900 3140 880 3140 900 3140" style="fill:transparent;stroke:black" /><text x="910" y="3140" font-size="8" style="fill:black">base: xs:string</text><rect x="1120" y="3120" width="200" height="40" style="fill:white;stroke:black;stroke-width:1" /><text x="1130" y="3130" font-size="10" style="fill:blue">xs:attribute</text><path d="M1100 3140 C1120 3140 1100 3140 1120 3140" style="fill:transparent;stroke:black" /><text x="1130" y="3140" font-size="8" style="fill:black">name: nombre</text><text x="1130" y="3150" font-size="8" style="fill:black">type: xs:string</text><text x="1130" y="3160" font-size="8" style="fill:black">use: required</text><rect x="240" y="3370" width="200" height="40" style="fill:white;stroke:black;stroke-width:1" /><text x="250" y="3380" font-size="10" style="fill:blue">xs:element</text><path d="M220 40 C240 40 220 3390 240 3390" style="fill:transparent;stroke:black" /><text x="250" y="3390" font-size="8" style="fill:black">name: puntoOrigen</text><rect x="460" y="3370" width="200" height="40" style="fill:white;stroke:black;stroke-width:1" /><text x="470" y="3380" font-size="10" style="fill:blue">xs:complexType</text><path d="M440 3390 C460 3390 440 3390 460 3390" style="fill:transparent;stroke:black" /><rect x="680" y="3370" width="200" height="40" style="fill:white;stroke:black;stroke-width:1" /><text x="690" y="3380" font-size="10" style="fill:blue">xs:sequence</text><path d="M660 3390 C680 3390 660 3390 680 3390" style="fill:transparent;stroke:black" /><rect x="900" y="3370" width="200" height="40" style="fill:white;stroke:black;stroke-width:1" /><text x="910" y="3380" font-size="10" style="fill:blue">xs:element</text><path d="M880 3390 C900 3390 880 3390 900 3390" style="fill:transparent;stroke:black" /><text x="910" y="3390" font-size="8" style="fill:black">ref: latitud</text><rect x="900" y="3420" width="200" height="40" style="fill:white;stroke:black;stroke-width:1" /><text x="910" y="3430" font-size="10" style="fill:blue">xs:element</text><path d="M880 3390 C900 3390 880 3440 900 3440" style="fill:transparent;stroke:black" /><text x="910" y="3440" font-size="8" style="fill:black">ref: longitud</text><rect x="900" y="3470" width="200" height="40" style="fill:white;stroke:black;stroke-width:1" /><text x="910" y="3480" font-size="10" style="fill:blue">xs:element</text><path d="M880 3390 C900 3390 880 3490 900 3490" style="fill:transparent;stroke:black" /><text x="910" y="3490" font-size="8" style="fill:black">ref: altitud</text><rect x="240" y="3670" width="200" height="40" style="fill:white;stroke:black;stroke-width:1" /><text x="250" y="3680" font-size="10" style="fill:blue">xs:element</text><path d="M220 40 C240 40 220 3690 240 3690" style="fill:transparent;stroke:black" /><text x="250" y="3690" font-size="8" style="fill:black">name: latitud</text><text x="250" y="3700" font-size="8" style="fill:black">type: latitudType</text><rect x="240" y="3720" width="200" height="40" style="fill:white;stroke:black;stroke-width:1" /><text x="250" y="3730" font-size="10" style="fill:blue">xs:simpleType</text><path d="M220 40 C240 40 220 3740 240 3740" style="fill:transparent;stroke:black" /><text x="250" y="3740" font-size="8" style="fill:black">name: latitudType</text><rect x="460" y="3720" width="200" height="40" style="fill:white;stroke:black;stroke-width:1" /><text x="470" y="3730" font-size="10" style="fill:blue">xs:restriction</text><path d="M440 3740 C460 3740 440 3740 460 3740" style="fill:transparent;stroke:black" /><text x="470" y="3740" font-size="8" style="fill:black">base: xs:double</text><rect x="680" y="3720" width="200" height="40" style="fill:white;stroke:black;stroke-width:1" /><text x="690" y="3730" font-size="10" style="fill:blue">xs:minInclusive</text><path d="M660 3740 C680 3740 660 3740 680 3740" style="fill:transparent;stroke:black" /><text x="690" y="3740" font-size="8" style="fill:black">value: -90</text><rect x="680" y="3770" width="200" height="40" style="fill:white;stroke:black;stroke-width:1" /><text x="690" y="3780" font-size="10" style="fill:blue">xs:maxInclusive</text><path d="M660 3740 C680 3740 660 3790 680 3790" style="fill:transparent;stroke:black" /><text x="690" y="3790" font-size="8" style="fill:black">value: 90</text><rect x="240" y="3920" width="200" height="40" style="fill:white;stroke:black;stroke-width:1" /><text x="250" y="3930" font-size="10" style="fill:blue">xs:element</text><path d="M220 40 C240 40 220 3940 240 3940" style="fill:transparent;stroke:black" /><text x="250" y="3940" font-size="8" style="fill:black">name: longitud</text><text x="250" y="3950" font-size="8" style="fill:black">type: longitudType</text><rect x="240" y="3970" width="200" height="40" style="fill:white;stroke:black;stroke-width:1" /><text x="250" y="3980" font-size="10" style="fill:blue">xs:simpleType</text><path d="M220 40 C240 40 220 3990 240 3990" style="fill:transparent;stroke:black" /><text x="250" y="3990" font-size="8" style="fill:black">name: longitudType</text><rect x="460" y="3970" width="200" height="40" style="fill:white;stroke:black;stroke-width:1" /><text x="470" y="3980" font-size="10" style="fill:blue">xs:restriction</text><path d="M440 3990 C460 3990 440 3990 460 3990" style="fill:transparent;stroke:black" /><text x="470" y="3990" font-size="8" style="fill:black">base: xs:double</text><rect x="680" y="3970" width="200" height="40" style="fill:white;stroke:black;stroke-width:1" /><text x="690" y="3980" font-size="10" style="fill:blue">xs:minInclusive</text><path d="M660 3990 C680 3990 660 3990 680 3990" style="fill:transparent;stroke:black" /><text x="690" y="3990" font-size="8" style="fill:black">value: -180</text><rect x="680" y="4020" width="200" height="40" style="fill:white;stroke:black;stroke-width:1" /><text x="690" y="4030" font-size="10" style="fill:blue">xs:maxInclusive</text><path d="M660 3990 C680 3990 660 4040 680 4040" style="fill:transparent;stroke:black" /><text x="690" y="4040" font-size="8" style="fill:black">value: 180</text><rect x="240" y="4170" width="200" height="40" style="fill:white;stroke:black;stroke-width:1" /><text x="250" y="4180" font-size="10" style="fill:blue">xs:element</text><path d="M220 40 C240 40 220 4190 240 4190" style="fill:transparent;stroke:black" /><text x="250" y="4190" font-size="8" style="fill:black">name: altitud</text><text x="250" y="4200" font-size="8" style="fill:black">type: altitudType</text><rect x="240" y="4220" width="200" height="40" style="fill:white;stroke:black;stroke-width:1" /><text x="250" y="4230" font-size="10" style="fill:blue">xs:simpleType</text><path d="M220 40 C240 40 220 4240 240 4240" style="fill:transparent;stroke:black" /><text x="250" y="4240" font-size="8" style="fill:black">name: altitudType</text><rect x="460" y="4220" width="200" height="40" style="fill:white;stroke:black;stroke-width:1" /><text x="470" y="4230" font-size="10" style="fill:blue">xs:restriction</text><path d="M440 4240 C460 4240 440 4240 460 4240" style="fill:transparent;stroke:black" /><text x="470" y="4240" font-size="8" style="fill:black">base: xs:double</text><rect x="680" y="4220" width="200" height="40" style="fill:white;stroke:black;stroke-width:1" /><text x="690" y="4230" font-size="10" style="fill:blue">xs:minInclusive</text><path d="M660 4240 C680 4240 660 4240 680 4240" style="fill:transparent;stroke:black" /><text x="690" y="4240" font-size="8" style="fill:black">value: 0</text><rect x="680" y="4270" width="200" height="40" style="fill:white;stroke:black;stroke-width:1" /><text x="690" y="4280" font-size="10" style="fill:blue">xs:maxInclusive</text><path d="M660 4240 C680 4240 660 4290 680 4290" style="fill:transparent;stroke:black" /><text x="690" y="4290" font-size="8" style="fill:black">value: 5000</text><rect x="240" y="4420" width="200" height="40" style="fill:white;stroke:black;stroke-width:1" /><text x="250" y="4430" font-size="10" style="fill:blue">xs:element</text><path d="M220 40 C240 40 220 4440 240 4440" style="fill:transparent;stroke:black" /><text x="250" y="4440" font-size="8" style="fill:black">name: tramos</text><rect x="460" y="4420" width="200" height="40" style="fill:white;stroke:black;stroke-width:1" /><text x="470" y="4430" font-size="10" style="fill:blue">xs:complexType</text><path d="M440 4440 C460 4440 440 4440 460 4440" style="fill:transparent;stroke:black" /><rect x="680" y="4420" width="200" height="40" style="fill:white;stroke:black;stroke-width:1" /><text x="690" y="4430" font-size="10" style="fill:blue">xs:sequence</text><path d="M660 4440 C680 4440 660 4440 680 4440" style="fill:transparent;stroke:black" /><rect x="900" y="4420" width="200" height="40" style="fill:white;stroke:black;stroke-width:1" /><text x="910" y="4430" font-size="10" style="fill:blue">xs:element</text><path d="M880 4440 C900 4440 880 4440 900 4440" style="fill:transparent;stroke:black" /><text x="910" y="4440" font-size="8" style="fill:black">minOccurs: 12</text><text x="910" y="4450" font-size="8" style="fill:black">maxOccurs: unbounded</text><text x="910" y="4460" font-size="8" style="fill:black">ref: tramo</text><rect x="240" y="4620" width="200" height="40" style="fill:white;stroke:black;stroke-width:1" /><text x="250" y="4630" font-size="10" style="fill:blue">xs:element</text><path d="M220 40 C240 40 220 4640 240 4640" style="fill:transparent;stroke:black" /><text x="250" y="4640" font-size="8" style="fill:black">name: tramo</text><rect x="460" y="4620" width="200" height="40" style="fill:white;stroke:black;stroke-width:1" /><text x="470" y="4630" font-size="10" style="fill:blue">xs:complexType</text><path d="M440 4640 C460 4640 440 4640 460 4640" style="fill:transparent;stroke:black" /><rect x="680" y="4620" width="200" height="40" style="fill:white;stroke:black;stroke-width:1" /><text x="690" y="4630" font-size="10" style="fill:blue">xs:sequence</text><path d="M660 4640 C680 4640 660 4640 680 4640" style="fill:transparent;stroke:black" /><rect x="900" y="4620" width="200" height="40" style="fill:white;stroke:black;stroke-width:1" /><text x="910" y="4630" font-size="10" style="fill:blue">xs:element</text><path d="M880 4640 C900 4640 880 4640 900 4640" style="fill:transparent;stroke:black" /><text x="910" y="4640" font-size="8" style="fill:black">ref: distanciaTramoEnMetros</text><rect x="900" y="4670" width="200" height="40" style="fill:white;stroke:black;stroke-width:1" /><text x="910" y="4680" font-size="10" style="fill:blue">xs:element</text><path d="M880 4640 C900 4640 880 4690 900 4690" style="fill:transparent;stroke:black" /><text x="910" y="4690" font-size="8" style="fill:black">ref: coordenadaFinalTramo</text><rect x="900" y="4720" width="200" height="40" style="fill:white;stroke:black;stroke-width:1" /><text x="910" y="4730" font-size="10" style="fill:blue">xs:element</text><path d="M880 4640 C900 4640 880 4740 900 4740" style="fill:transparent;stroke:black" /><text x="910" y="4740" font-size="8" style="fill:black">ref: numeroSectorCircuito</text><rect x="240" y="4920" width="200" height="40" style="fill:white;stroke:black;stroke-width:1" /><text x="250" y="4930" font-size="10" style="fill:blue">xs:element</text><path d="M220 40 C240 40 220 4940 240 4940" style="fill:transparent;stroke:black" /><text x="250" y="4940" font-size="8" style="fill:black">name: distanciaTramoEnMetros</text><rect x="460" y="4920" width="200" height="40" style="fill:white;stroke:black;stroke-width:1" /><text x="470" y="4930" font-size="10" style="fill:blue">xs:complexType</text><path d="M440 4940 C460 4940 440 4940 460 4940" style="fill:transparent;stroke:black" /><rect x="680" y="4920" width="200" height="40" style="fill:white;stroke:black;stroke-width:1" /><text x="690" y="4930" font-size="10" style="fill:blue">xs:simpleContent</text><path d="M660 4940 C680 4940 660 4940 680 4940" style="fill:transparent;stroke:black" /><rect x="900" y="4920" width="200" height="40" style="fill:white;stroke:black;stroke-width:1" /><text x="910" y="4930" font-size="10" style="fill:blue">xs:extension</text><path d="M880 4940 C900 4940 880 4940 900 4940" style="fill:transparent;stroke:black" /><text x="910" y="4940" font-size="8" style="fill:black">base: xs:double</text><rect x="1120" y="4920" width="200" height="40" style="fill:white;stroke:black;stroke-width:1" /><text x="1130" y="4930" font-size="10" style="fill:blue">xs:attribute</text><path d="M1100 4940 C1120 4940 1100 4940 1120 4940" style="fill:transparent;stroke:black" /><text x="1130" y="4940" font-size="8" style="fill:black">name: unidad</text><text x="1130" y="4950" font-size="8" style="fill:black">type: xs:string</text><text x="1130" y="4960" font-size="8" style="fill:black">use: required</text><rect x="240" y="5170" width="200" height="40" style="fill:white;stroke:black;stroke-width:1" /><text x="250" y="5180" font-size="10" style="fill:blue">xs:element</text><path d="M220 40 C240 40 220 5190 240 5190" style="fill:transparent;stroke:black" /><text x="250" y="5190" font-size="8" style="fill:black">name: coordenadaFinalTramo</text><rect x="460" y="5170" width="200" height="40" style="fill:white;stroke:black;stroke-width:1" /><text x="470" y="5180" font-size="10" style="fill:blue">xs:complexType</text><path d="M440 5190 C460 5190 440 5190 460 5190" style="fill:transparent;stroke:black" /><rect x="680" y="5170" width="200" height="40" style="fill:white;stroke:black;stroke-width:1" /><text x="690" y="5180" font-size="10" style="fill:blue">xs:sequence</text><path d="M660 5190 C680 5190 660 5190 680 5190" style="fill:transparent;stroke:black" /><rect x="900" y="5170" width="200" height="40" style="fill:white;stroke:black;stroke-width:1" /><text x="910" y="5180" font-size="10" style="fill:blue">xs:element</text><path d="M880 5190 C900 5190 880 5190 900 5190" style="fill:transparent;stroke:black" /><text x="910" y="5190" font-size="8" style="fill:black">ref: latitudTramo</text><rect x="900" y="5220" width="200" height="40" style="fill:white;stroke:black;stroke-width:1" /><text x="910" y="5230" font-size="10" style="fill:blue">xs:element</text><path d="M880 5190 C900 5190 880 5240 900 5240" style="fill:transparent;stroke:black" /><text x="910" y="5240" font-size="8" style="fill:black">ref: longitudTramo</text><rect x="900" y="5270" width="200" height="40" style="fill:white;stroke:black;stroke-width:1" /><text x="910" y="5280" font-size="10" style="fill:blue">xs:element</text><path d="M880 5190 C900 5190 880 5290 900 5290" style="fill:transparent;stroke:black" /><text x="910" y="5290" font-size="8" style="fill:black">ref: altitudTramo</text><rect x="240" y="5470" width="200" height="40" style="fill:white;stroke:black;stroke-width:1" /><text x="250" y="5480" font-size="10" style="fill:blue">xs:element</text><path d="M220 40 C240 40 220 5490 240 5490" style="fill:transparent;stroke:black" /><text x="250" y="5490" font-size="8" style="fill:black">name: latitudTramo</text><text x="250" y="5500" font-size="8" style="fill:black">type: latitudTramoType</text><rect x="240" y="5520" width="200" height="40" style="fill:white;stroke:black;stroke-width:1" /><text x="250" y="5530" font-size="10" style="fill:blue">xs:simpleType</text><path d="M220 40 C240 40 220 5540 240 5540" style="fill:transparent;stroke:black" /><text x="250" y="5540" font-size="8" style="fill:black">name: latitudTramoType</text><rect x="460" y="5520" width="200" height="40" style="fill:white;stroke:black;stroke-width:1" /><text x="470" y="5530" font-size="10" style="fill:blue">xs:restriction</text><path d="M440 5540 C460 5540 440 5540 460 5540" style="fill:transparent;stroke:black" /><text x="470" y="5540" font-size="8" style="fill:black">base: xs:double</text><rect x="680" y="5520" width="200" height="40" style="fill:white;stroke:black;stroke-width:1" /><text x="690" y="5530" font-size="10" style="fill:blue">xs:minInclusive</text><path d="M660 5540 C680 5540 660 5540 680 5540" style="fill:transparent;stroke:black" /><text x="690" y="5540" font-size="8" style="fill:black">value: -90</text><rect x="680" y="5570" width="200" height="40" style="fill:white;stroke:black;stroke-width:1" /><text x="690" y="5580" font-size="10" style="fill:blue">xs:maxInclusive</text><path d="M660 5540 C680 5540 660 5590 680 5590" style="fill:transparent;stroke:black" /><text x="690" y="5590" font-size="8" style="fill:black">value: 90</text><rect x="240" y="5720" width="200" height="40" style="fill:white;stroke:black;stroke-width:1" /><text x="250" y="5730" font-size="10" style="fill:blue">xs:element</text><path d="M220 40 C240 40 220 5740 240 5740" style="fill:transparent;stroke:black" /><text x="250" y="5740" font-size="8" style="fill:black">name: longitudTramo</text><text x="250" y="5750" font-size="8" style="fill:black">type: longitudTramoType</text><rect x="240" y="5770" width="200" height="40" style="fill:white;stroke:black;stroke-width:1" /><text x="250" y="5780" font-size="10" style="fill:blue">xs:simpleType</text><path d="M220 40 C240 40 220 5790 240 5790" style="fill:transparent;stroke:black" /><text x="250" y="5790" font-size="8" style="fill:black">name: longitudTramoType</text><rect x="460" y="5770" width="200" height="40" style="fill:white;stroke:black;stroke-width:1" /><text x="470" y="5780" font-size="10" style="fill:blue">xs:restriction</text><path d="M440 5790 C460 5790 440 5790 460 5790" style="fill:transparent;stroke:black" /><text x="470" y="5790" font-size="8" style="fill:black">base: xs:double</text><rect x="680" y="5770" width="200" height="40" style="fill:white;stroke:black;stroke-width:1" /><text x="690" y="5780" font-size="10" style="fill:blue">xs:minInclusive</text><path d="M660 5790 C680 5790 660 5790 680 5790" style="fill:transparent;stroke:black" /><text x="690" y="5790" font-size="8" style="fill:black">value: -180</text><rect x="680" y="5820" width="200" height="40" style="fill:white;stroke:black;stroke-width:1" /><text x="690" y="5830" font-size="10" style="fill:blue">xs:maxInclusive</text><path d="M660 5790 C680 5790 660 5840 680 5840" style="fill:transparent;stroke:black" /><text x="690" y="5840" font-size="8" style="fill:black">value: 180</text><rect x="240" y="5970" width="200" height="40" style="fill:white;stroke:black;stroke-width:1" /><text x="250" y="5980" font-size="10" style="fill:blue">xs:element</text><path d="M220 40 C240 40 220 5990 240 5990" style="fill:transparent;stroke:black" /><text x="250" y="5990" font-size="8" style="fill:black">name: altitudTramo</text><text x="250" y="6000" font-size="8" style="fill:black">type: altitudTramoType</text><rect x="240" y="6020" width="200" height="40" style="fill:white;stroke:black;stroke-width:1" /><text x="250" y="6030" font-size="10" style="fill:blue">xs:simpleType</text><path d="M220 40 C240 40 220 6040 240 6040" style="fill:transparent;stroke:black" /><text x="250" y="6040" font-size="8" style="fill:black">name: altitudTramoType</text><rect x="460" y="6020" width="200" height="40" style="fill:white;stroke:black;stroke-width:1" /><text x="470" y="6030" font-size="10" style="fill:blue">xs:restriction</text><path d="M440 6040 C460 6040 440 6040 460 6040" style="fill:transparent;stroke:black" /><text x="470" y="6040" font-size="8" style="fill:black">base: xs:double</text><rect x="680" y="6020" width="200" height="40" style="fill:white;stroke:black;stroke-width:1" /><text x="690" y="6030" font-size="10" style="fill:blue">xs:minInclusive</text><path d="M660 6040 C680 6040 660 6040 680 6040" style="fill:transparent;stroke:black" /><text x="690" y="6040" font-size="8" style="fill:black">value: -500</text><rect x="680" y="6070" width="200" height="40" style="fill:white;stroke:black;stroke-width:1" /><text x="690" y="6080" font-size="10" style="fill:blue">xs:maxInclusive</text><path d="M660 6040 C680 6040 660 6090 680 6090" style="fill:transparent;stroke:black" /><text x="690" y="6090" font-size="8" style="fill:black">value: 9000</text><rect x="240" y="6220" width="200" height="40" style="fill:white;stroke:black;stroke-width:1" /><text x="250" y="6230" font-size="10" style="fill:blue">xs:element</text><path d="M220 40 C240 40 220 6240 240 6240" style="fill:transparent;stroke:black" /><text x="250" y="6240" font-size="8" style="fill:black">name: numeroSectorCircuito</text><text x="250" y="6250" font-size="8" style="fill:black">type: xs:int</text><rect x="240" y="6270" width="200" height="40" style="fill:white;stroke:black;stroke-width:1" /><text x="250" y="6280" font-size="10" style="fill:blue">xs:element</text><path d="M220 40 C240 40 220 6290 240 6290" style="fill:transparent;stroke:black" /><text x="250" y="6290" font-size="8" style="fill:black">name: vencedorCarrera</text><rect x="460" y="6270" width="200" height="40" style="fill:white;stroke:black;stroke-width:1" /><text x="470" y="6280" font-size="10" style="fill:blue">xs:complexType</text><path d="M440 6290 C460 6290 440 6290 460 6290" style="fill:transparent;stroke:black" /><rect x="680" y="6270" width="200" height="40" style="fill:white;stroke:black;stroke-width:1" /><text x="690" y="6280" font-size="10" style="fill:blue">xs:sequence</text><path d="M660 6290 C680 6290 660 6290 680 6290" style="fill:transparent;stroke:black" /><rect x="900" y="6270" width="200" height="40" style="fill:white;stroke:black;stroke-width:1" /><text x="910" y="6280" font-size="10" style="fill:blue">xs:element</text><path d="M880 6290 C900 6290 880 6290 900 6290" style="fill:transparent;stroke:black" /><text x="910" y="6290" font-size="8" style="fill:black">ref: nombreVencedor</text><rect x="900" y="6320" width="200" height="40" style="fill:white;stroke:black;stroke-width:1" /><text x="910" y="6330" font-size="10" style="fill:blue">xs:element</text><path d="M880 6290 C900 6290 880 6340 900 6340" style="fill:transparent;stroke:black" /><text x="910" y="6340" font-size="8" style="fill:black">ref: tiempoVencedor</text><rect x="240" y="6520" width="200" height="40" style="fill:white;stroke:black;stroke-width:1" /><text x="250" y="6530" font-size="10" style="fill:blue">xs:element</text><path d="M220 40 C240 40 220 6540 240 6540" style="fill:transparent;stroke:black" /><text x="250" y="6540" font-size="8" style="fill:black">name: nombreVencedor</text><text x="250" y="6550" font-size="8" style="fill:black">type: xs:string</text><rect x="240" y="6570" width="200" height="40" style="fill:white;stroke:black;stroke-width:1" /><text x="250" y="6580" font-size="10" style="fill:blue">xs:element</text><path d="M220 40 C240 40 220 6590 240 6590" style="fill:transparent;stroke:black" /><text x="250" y="6590" font-size="8" style="fill:black">name: tiempoVencedor</text><text x="250" y="6600" font-size="8" style="fill:black">type: xs:duration</text><rect x="240" y="6620" width="200" height="40" style="fill:white;stroke:black;stroke-width:1" /><text x="250" y="6630" font-size="10" style="fill:blue">xs:element</text><path d="M220 40 C240 40 220 6640 240 6640" style="fill:transparent;stroke:black" /><text x="250" y="6640" font-size="8" style="fill:black">name: clasificados</text><rect x="460" y="6620" width="200" height="40" style="fill:white;stroke:black;stroke-width:1" /><text x="470" y="6630" font-size="10" style="fill:blue">xs:complexType</text><path d="M440 6640 C460 6640 440 6640 460 6640" style="fill:transparent;stroke:black" /><rect x="680" y="6620" width="200" height="40" style="fill:white;stroke:black;stroke-width:1" /><text x="690" y="6630" font-size="10" style="fill:blue">xs:sequence</text><path d="M660 6640 C680 6640 660 6640 680 6640" style="fill:transparent;stroke:black" /><rect x="900" y="6620" width="200" height="40" style="fill:white;stroke:black;stroke-width:1" /><text x="910" y="6630" font-size="10" style="fill:blue">xs:element</text><path d="M880 6640 C900 6640 880 6640 900 6640" style="fill:transparent;stroke:black" /><text x="910" y="6640" font-size="8" style="fill:black">name: clasificado</text><text x="910" y="6650" font-size="8" style="fill:black">minOccurs: 3</text><text x="910" y="6660" font-size="8" style="fill:black">maxOccurs: 3</text><rect x="1120" y="6620" width="200" height="40" style="fill:white;stroke:black;stroke-width:1" /><text x="1130" y="6630" font-size="10" style="fill:blue">xs:complexType</text><path d="M1100 6640 C1120 6640 1100 6640 1120 6640" style="fill:transparent;stroke:black" /><rect x="1340" y="6620" width="200" height="40" style="fill:white;stroke:black;stroke-width:1" /><text x="1350" y="6630" font-size="10" style="fill:blue">xs:simpleContent</text><path d="M1320 6640 C1340 6640 1320 6640 1340 6640" style="fill:transparent;stroke:black" /><rect x="1560" y="6620" width="200" height="40" style="fill:white;stroke:black;stroke-width:1" /><text x="1570" y="6630" font-size="10" style="fill:blue">xs:extension</text><path d="M1540 6640 C1560 6640 1540 6640 1560 6640" style="fill:transparent;stroke:black" /><text x="1570" y="6640" font-size="8" style="fill:black">base: xs:string</text><rect x="1780" y="6620" width="200" height="40" style="fill:white;stroke:black;stroke-width:1" /><text x="1790" y="6630" font-size="10" style="fill:blue">xs:attribute</text><path d="M1760 6640 C1780 6640 1760 6640 1780 6640" style="fill:transparent;stroke:black" /><text x="1790" y="6640" font-size="8" style="fill:black">name: posicion</text><text x="1790" y="6650" font-size="8" style="fill:black">type: xs:int</text><text x="1790" y="6660" font-size="8" style="fill:black">use: required</text></svg>